<?xml version="1.0" encoding="utf-8"?>
<!-- Generator: Adobe Illustrator 16.0.0, SVG Export Plug-In . SVG Version: 6.00 Build 0)  -->
<!DOCTYPE svg PUBLIC "-//W3C//DTD SVG 1.1//EN" "http://www.w3.org/Graphics/SVG/1.1/DTD/svg11.dtd">
<svg version="1.1" id="Layer_1" xmlns="http://www.w3.org/2000/svg" xmlns:xlink="http://www.w3.org/1999/xlink" x="0px" y="0px"
	 width="507.971px" height="203.375px" viewBox="0 0 507.971 203.375" enable-background="new 0 0 507.971 203.375"
	 xml:space="preserve">
<g>
	<path fill="#FF0558" d="M138.175,137.313c3.157-45.694,6.313-91.39,9.486-137.313c16.261,0,32.004,0,48.698,0
		c-10.51,63.277-20.948,126.134-31.419,189.162c-15.706,1.672-30.884,3.287-46.81,4.98c-5.159-28.863-10.284-57.533-15.408-86.203
		c-0.582-0.15-1.164-0.301-1.746-0.451c-0.71,1.268-1.885,2.475-2.062,3.811c-3.429,26.053-6.732,52.119-10.082,78.182
		c-0.315,2.457-0.762,4.896-1.217,7.797c-18.931,2.023-37.728,4.035-57.008,6.099C20.409,150.777,10.261,98.472,0,45.579
		c16.9,0,33.423,0,50.722,0c4.782,31.862,9.604,63.979,14.424,96.098c0.56,0.236,1.116,0.474,1.675,0.709
		c0.771-1.264,2.015-2.45,2.235-3.805c2.739-16.733,5.331-33.494,7.957-50.247c2.209-14.1,4.414-28.199,6.685-42.711
		c10.705,0,21.088,0,31.779,0c6.698,30.685,13.394,61.342,20.085,92C136.432,137.521,137.304,137.417,138.175,137.313z"/>
	<path fill="#FF0558" d="M203.499,45.469c17.155,0,33.889,0,50.95,0c6.715,43.828,13.401,87.484,20.243,132.146
		c-10.968,1.17-21.754,2.318-33.06,3.521c-0.882-8.268-1.718-16.11-2.619-24.563c-6.53,0.491-12.574,0.948-19.305,1.456
		c-0.856,8.48-1.686,16.679-2.589,25.644c-12.212,1.295-24.322,2.58-37.066,3.933C187.917,139.943,195.642,93.098,203.499,45.469z
		 M226.801,77.705c-1.636,18.172-3.225,35.82-4.878,54.188c5.223-0.23,9.72-0.433,14.744-0.654
		c-1.722-18.309-3.363-35.804-5.029-53.532C229.979,77.705,228.731,77.705,226.801,77.705z"/>
	<path fill="#FF0558" d="M394.635,89.91c-8.021,0-15.426,0-23.532,0c0-6.797,0-13.693,0-21.03c-2.889,0-5.104,0-7.795,0
		c0,27.118,0,54.146,0,81.474c2.387,0,4.601,0,7.511,0c0-10.894,0-21.453,0-32.761c8.177-0.473,15.705-0.907,23.353-1.35
		c0,11.223,1.007,21.916-0.271,32.327c-1.402,11.435-10.258,17.287-20.806,19.529c-6.406,1.361-13.271,1.563-19.823,1.025
		c-9.946-0.813-16.03-7.795-16.16-18.295c-0.298-24.15-0.186-48.311-0.229-72.465c-0.008-3.331-0.021-6.665,0.092-9.993
		c0.407-12.042,5.995-20.112,17.615-23.026c6.292-1.578,13.273-2.02,19.69-1.132c12.354,1.708,19.133,9.282,20.232,21.779
		C395.179,73.575,394.635,81.262,394.635,89.91z"/>
	<path fill="#FF0558" d="M402.514,45.51c7.589,0,14.949,0,22.904,0c0,15.461,0,30.545,0,45.847c3.004,0,5.412,0,8.465,0
		c0-15.387,0-30.445,0-45.837c7.182,0,13.719,0,20.619,0c0,37.767,0,75.153,0,113.218c-6.575,0.674-13.095,1.342-20.298,2.078
		c0-15.896,0-31.131,0-46.857c-2.977,0-5.339,0-8.495,0c0,15.801,0,31.498,0,47.805c-8.063,0.848-15.422,1.621-23.195,2.438
		C402.514,124.602,402.514,85.273,402.514,45.51z"/>
	<path fill="#FF0558" d="M331.591,76.468c-5.168,0.381-10.211,0.753-15.732,1.16c0,31.967,0,63.542,0,95.618
		c-9.455,1.041-18.457,2.029-28.114,3.094c0-32.771,0-65.131,0-97.896c-6.659,0-12.727,0-19.235,0c0-10.997,0-21.688,0-32.888
		c20.98,0,41.846,0,63.084,0C331.591,55.812,331.591,65.873,331.591,76.468z"/>
	<path fill="#FF0558" d="M468.837,45.428c10.261,0,19.843,0,29.979,0c3.053,35.892,6.078,71.465,9.155,107.641
		c-5.907,0.615-11.438,1.188-17.387,1.811c-0.589-7.559-1.136-14.598-1.698-21.863c-2.478,0-4.516,0-7.161,0
		c-0.397,7.777-0.774,15.162-1.177,23.045c-6.43,0.623-12.622,1.224-19.679,1.904C463.55,120.119,466.185,82.905,468.837,45.428z
		 M488.149,114.455c-0.903-14.855-1.768-29.08-2.632-43.303c-0.802,0.021-1.604,0.042-2.405,0.063c0,14.352,0,28.703,0,43.24
		C484.34,114.455,485.786,114.455,488.149,114.455z"/>
</g>
</svg>
