<?xml version="1.0" encoding="utf-8"?>
<!-- Generator: Adobe Illustrator 16.0.0, SVG Export Plug-In . SVG Version: 6.00 Build 0)  -->
<!DOCTYPE svg PUBLIC "-//W3C//DTD SVG 1.1//EN" "http://www.w3.org/Graphics/SVG/1.1/DTD/svg11.dtd">
<svg version="1.1" id="Layer_1" xmlns="http://www.w3.org/2000/svg" xmlns:xlink="http://www.w3.org/1999/xlink" x="0px" y="0px"
	 width="955.859px" height="188.24px" viewBox="0 0 955.859 188.24" enable-background="new 0 0 955.859 188.24"
	 xml:space="preserve">
<g>
	
		<image overflow="visible" width="791" height="212" xlink:href="EB413F3.png"  transform="matrix(0.24 0 0 0.24 171.4419 111.4341)">
	</image>
	
		<image overflow="visible" width="1457" height="245" xlink:href="EB413F1.png"  transform="matrix(0.24 0 0 0.24 131.6919 101.2856)">
	</image>
	
		<image overflow="visible" width="1457" height="245" xlink:href="EB413F7.png"  transform="matrix(0.24 0 0 0.24 505.2246 129.6489)">
	</image>
	
		<image overflow="visible" width="1105" height="441" xlink:href="EB413F0.png"  transform="matrix(0.24 0 0 0.24 690.7646 74.3374)">
	</image>
	<image overflow="visible" width="1105" height="441" xlink:href="EB413FE.png"  transform="matrix(0.24 0 0 0.24 40.9185 0)">
	</image>
	<image overflow="visible" width="1200" height="243" xlink:href="EB413FF.png"  transform="matrix(0.24 0 0 0.24 0 31.7856)">
	</image>
	
		<image overflow="visible" width="1105" height="319" xlink:href="EB413F2.png"  transform="matrix(0.24 0 0 0.24 277.5615 109.2437)">
	</image>
</g>
</svg>
