<?xml version="1.0" encoding="utf-8"?>
<!-- Generator: Adobe Illustrator 16.0.0, SVG Export Plug-In . SVG Version: 6.00 Build 0)  -->
<!DOCTYPE svg PUBLIC "-//W3C//DTD SVG 1.1//EN" "http://www.w3.org/Graphics/SVG/1.1/DTD/svg11.dtd">
<svg version="1.1" id="Layer_1" xmlns="http://www.w3.org/2000/svg" xmlns:xlink="http://www.w3.org/1999/xlink" x="0px" y="0px"
	 width="776.984px" height="403.76px" viewBox="0 0 776.984 403.76" enable-background="new 0 0 776.984 403.76"
	 xml:space="preserve">
<g>
	<path fill-rule="evenodd" clip-rule="evenodd" fill="#231F20" d="M255.165,345.954c0.001,0.018,0.002,0.035,0.003,0.055
		c-0.054,0.004-0.097,0.008-0.146,0.012c0.022-0.01,0.043-0.02,0.067-0.031C255.112,345.979,255.14,345.966,255.165,345.954z"/>
	<path fill-rule="evenodd" clip-rule="evenodd" fill="#231F20" d="M255.022,346.021L255.022,346.021
		c0.022-0.01,0.042-0.02,0.067-0.031C255.065,346.001,255.044,346.011,255.022,346.021z"/>
	<path fill-rule="evenodd" clip-rule="evenodd" fill="#231F20" d="M255.165,345.954L255.165,345.954
		c-0.025,0.012-0.053,0.025-0.075,0.035C255.113,345.979,255.139,345.966,255.165,345.954z"/>
	<path fill="#97A8D6" d="M91.261,236.735l33.477,80.891c86.681,40.096,260.164,52.617,423.958-25.486l53.057-82.351
		c0,0-194.737,10.476-401.215-21.442L91.261,236.735z"/>
	<g>
		<path fill="none" d="M601.752,209.789c0,0-0.017,0.001-0.045,0.002L601.752,209.789z"/>
		<path fill="#EAEEF6" d="M601.708,209.791c0.028-0.001,0.045-0.002,0.045-0.002C372.857,365.085,91.261,236.735,91.261,236.735
			l483.38-20.969L601.708,209.791z"/>
		<path fill="#98A1D1" d="M200.537,188.347c204.732,31.647,397.917,21.616,401.17,21.444l-488.807,27.406l-21.64-0.462
			L200.537,188.347z"/>
	</g>
	<path fill="#221F5C" d="M112.901,237.197c0,0,262.422,98.819,461.74-21.431c0,0-178.95,9.614-368.716-20.189L112.901,237.197z"/>
	<polygon fill="#EAEEF6" points="326.273,277.798 373.897,274.969 432.8,219.061 402.912,218.222 	"/>
	<polygon fill="#3E70B7" points="374.574,274.326 389.19,273.238 432.947,228.466 432.8,219.061 	"/>
	<polygon fill="#EAEEF6" points="163.609,255.071 206.497,262.636 280.106,211.193 248.562,207.393 	"/>
	<polygon fill="#3E70B7" points="206.497,262.636 219.509,264.548 279.765,219.724 280.106,211.193 	"/>
</g>
<g>
	<path fill="#4C499E" d="M255.736,141.154c-4.712,8.407,1.161,20.17,3.36,23.904c13.244,22.49,1.092,98.224,0.982,105.503
		c7.89,1.111,13.363,1.346,21.551,2.212c0.033-0.954,5.252-41.227,6.934-46.489c2.763-8.651,7.814-43.723,10.018-50.259
		c3.46-10.263,4.859-20.546,4.533-31.203C286.582,142.768,255.027,140.979,255.736,141.154z"/>
	<path fill="#F7CABB" d="M305.27,122.188c-0.673,2.693,0.027,5.729,1.397,8.758c-0.004-0.392-0.011-0.777-0.011-1.178
		c3.762,2.162,4.781,2.208,8.14,0.351c1.279-0.707,2.375-1.755,3.671-2.419c3.754-1.922,4.263-2.651,2.627-6.882
		C315.792,115.584,306.588,116.912,305.27,122.188z"/>
	<path fill="#E6F2FB" d="M322.404,110.384c-5.04-0.734-10.072-1.529-15.09-2.399c-0.72-0.125-1.78-0.971-1.878-1.606
		c-1.598-10.315-7.296-18.839-11.633-28.077c-5.712-12.168-4.733-17.967-5.136-18.014c0.189,0.406-2.426-8.88-20.444-8.224
		c0,0.331,0,0.662,0,1.323c0-0.662,0-0.992,0-1.323c0-0.18,0.873-0.554,0,0c-0.002,0.017-13.971,24.96-16.241,39.174
		c-1.291,8.086-2.844,16.136-4.503,24.155c-1.538,7.435-3.374,14.809-5.135,22.453c4.005,0.99,17.928,15.099,63.497,7.27
		c-0.003-0.103,0.842-12.93,0.815-15.348c-1.37-3.029-2.06-4.887-1.386-7.58c1.319-5.275,10.523-6.603,15.824-1.37
		c-0.114-0.294-0.237-0.603-0.371-0.932c0.567,0.176,1.038,0.304,1.471,0.422C321.998,117.106,322.271,113.706,322.404,110.384z"/>
	<path fill="#F7CABB" d="M288.666,60.287C289.069,60.333,288.325,60.18,288.666,60.287c0.047-0.231,0.478-4.172,3.11-7.417
		c0.19-0.234,0.69-0.888,1.171-1.133c1.232-0.627,2.486-1.259,3.8-1.667c2.566-0.794,5.033-1.522,3.853-5.127
		c-0.123-0.376,0.288-0.903,0.373-1.374c0.295-1.642,0.555-3.29,0.829-4.935c4.139-3.601-1.995-5.41-1.954-7.983
		c0.158-0.226,0.319-0.445,0.478-0.668c-11.986,4.911-21.464,14.812-32.104,22.079c0,0.233,0-0.18,0,0
		C275.714,52.063,285.49,53.482,288.666,60.287z"/>
	<path fill="#F7CABB" d="M328.335,110.549c-0.737,0.305-1.579,0.471-2.28,0.375c-1.219-0.167-2.434-0.362-3.651-0.54
		c-0.133,3.322-0.406,6.722-0.21,9.924c0.717,0.197,1.299,0.361,1.812,0.622c2.184,1.111,4.251,2.465,6.477,3.476
		c2.224,1.01,8.509-6.411,8.753-6.1C340.085,113.106,335.272,109.058,328.335,110.549z"/>
	<g>
		<g>
			<path fill="#A0A1A3" d="M522.892,0.544L379.044,85.623c-0.909,0.54-1.073,1.423-0.88,1.759l0,0
				c0.193,0.336,1.063,0.681,1.971,0.141L523.594,1.766c0.908-0.54,1.494-1.257,1.301-1.593l0,0
				C524.703-0.163,523.801,0.004,522.892,0.544z"/>
			<polygon fill="#C3C5C6" points="388.16,79.46 370.006,90.25 371.618,93.054 389.771,82.265 			"/>
			<g>
				<g>
					<path fill="#A0A1A3" d="M512.711,7.325c1.801-1.07,2.473-3.34,1.494-5.044l0,0c-0.979-1.704-3.254-2.223-5.055-1.152
						s-2.474,3.341-1.494,5.045l0,0C508.635,7.877,510.91,8.396,512.711,7.325z M509.314,5.188c-0.482-0.841-0.15-1.962,0.738-2.49
						s2.012-0.272,2.495,0.569l0,0c0.483,0.841,0.151,1.962-0.737,2.49C510.92,6.285,509.797,6.029,509.314,5.188L509.314,5.188z"/>
				</g>
				<g>
					<path fill="#A0A1A3" d="M513.572,6.64c1.129-1.185,1.437-2.962,0.634-4.359l0,0c-0.979-1.704-3.254-2.223-5.055-1.152
						s-2.474,3.341-1.494,5.045l0,0c0.808,1.406,2.498,2.005,4.076,1.57 M509.314,5.188c-0.482-0.841-0.15-1.962,0.738-2.49
						s2.012-0.272,2.495,0.569l0,0c0.483,0.841,0.151,1.962-0.737,2.49C510.92,6.285,509.797,6.029,509.314,5.188L509.314,5.188z"/>
				</g>
			</g>
			<g>
				<g>
					<path fill="#A0A1A3" d="M477.396,28.242c1.129-1.185,1.436-2.962,0.633-4.359l0,0c-0.979-1.704-3.254-2.223-5.055-1.152
						s-2.473,3.34-1.494,5.044l0,0c0.809,1.406,2.498,2.005,4.076,1.57 M473.138,26.79c-0.483-0.841-0.151-1.962,0.738-2.49
						c0.889-0.528,2.012-0.272,2.494,0.569l0,0c0.484,0.841,0.152,1.962-0.737,2.49S473.622,27.631,473.138,26.79L473.138,26.79z"/>
				</g>
			</g>
			<g>
				<g>
					<path fill="#A0A1A3" d="M440.554,50.129c1.801-1.07,2.473-3.34,1.494-5.044l0,0c-0.979-1.704-3.254-2.223-5.055-1.152
						c-1.801,1.071-2.473,3.341-1.494,5.045l0,0C436.478,50.681,438.753,51.2,440.554,50.129z M437.158,47.992
						c-0.483-0.841-0.151-1.962,0.737-2.491c0.89-0.528,2.013-0.272,2.495,0.569l0,0c0.484,0.841,0.152,1.962-0.737,2.49
						C438.763,49.089,437.64,48.833,437.158,47.992L437.158,47.992z"/>
				</g>
				<g>
					<path fill="none" d="M441.416,49.443c1.129-1.185,1.436-2.962,0.633-4.359l0,0c-0.979-1.704-3.254-2.223-5.055-1.152
						c-1.801,1.071-2.473,3.341-1.494,5.045l0,0c0.809,1.406,2.498,2.005,4.076,1.57 M437.158,47.992
						c-0.483-0.841-0.151-1.962,0.737-2.491c0.89-0.528,2.013-0.272,2.495,0.569l0,0c0.484,0.841,0.152,1.962-0.737,2.49
						C438.763,49.089,437.64,48.833,437.158,47.992L437.158,47.992z"/>
				</g>
			</g>
			<g>
				<g>
					<path fill="#A0A1A3" d="M404.529,71.623c1.801-1.07,2.473-3.34,1.494-5.044l0,0c-0.979-1.704-3.254-2.223-5.055-1.152
						s-2.474,3.34-1.494,5.044l0,0C400.453,72.174,402.727,72.693,404.529,71.623z M401.131,69.485
						c-0.483-0.841-0.151-1.962,0.738-2.49c0.889-0.528,2.012-0.272,2.495,0.569l0,0c0.483,0.841,0.151,1.962-0.738,2.49
						C402.738,70.582,401.615,70.326,401.131,69.485L401.131,69.485z"/>
				</g>
				<g>
					<path fill="none" d="M405.389,70.937c1.129-1.185,1.437-2.962,0.634-4.359l0,0c-0.979-1.704-3.254-2.223-5.055-1.152
						s-2.474,3.34-1.494,5.044l0,0c0.808,1.406,2.498,2.005,4.076,1.57 M401.131,69.485c-0.483-0.841-0.151-1.962,0.738-2.49
						c0.889-0.528,2.012-0.272,2.495,0.569l0,0c0.483,0.841,0.151,1.962-0.738,2.49C402.738,70.582,401.615,70.326,401.131,69.485
						L401.131,69.485z"/>
				</g>
			</g>
			<g>
				<path fill="#C3C5C6" d="M363.089,77.384l2.573-1.529c0.995-0.591,2.251-0.305,2.792,0.636l2.24,3.899
					c0.541,0.941,0.169,2.195-0.825,2.786l-2.573,1.529c-0.995,0.591-2.251,0.305-2.792-0.636l-2.24-3.899
					C361.723,79.229,362.095,77.975,363.089,77.384z"/>
				<path fill="#C3C5C6" d="M377.851,66.926L377.851,66.926c0.973-0.578,2.201-0.298,2.73,0.623l3.664,6.377
					c0.529,0.92,0.166,2.146-0.807,2.725l0,0c-0.973,0.578-2.201,0.298-2.73-0.623l-3.664-6.377
					C376.515,68.73,376.878,67.504,377.851,66.926z"/>
				<polygon fill="#414142" points="365.126,74.489 376.815,67.542 382.401,77.266 370.712,84.213 				"/>
				<g>
					<path fill="#C3C5C6" d="M363.227,74.474l1.41-0.837l5.075,8.833c1.197,2.084,3.964,2.715,6.167,1.406l3.698-2.198
						c2.203-1.309,3.021-4.07,1.823-6.155l-5.075-8.833l1.409-0.837l5.075,8.833c1.62,2.82,0.513,6.555-2.467,8.326l-3.698,2.198
						c-2.98,1.771-6.723,0.918-8.343-1.902L363.227,74.474z"/>
				</g>
				<path fill="#232020" d="M364.351,80.116L364.351,80.116c0.619-0.368,1.4-0.189,1.736,0.396l0,0
					c0.336,0.585,0.105,1.365-0.513,1.733l0,0c-0.619,0.368-1.4,0.19-1.737-0.396l0,0C363.501,81.264,363.732,80.484,364.351,80.116
					z"/>
				<g>
					<path fill="#C3C5C6" d="M357.764,78.045L357.764,78.045c0.071-0.143,0.245-0.209,0.386-0.148l6.769,2.94
						c0.141,0.061,0.198,0.228,0.126,0.37l0,0c-0.071,0.143-0.245,0.209-0.386,0.148l-6.769-2.94
						C357.749,78.354,357.692,78.188,357.764,78.045z"/>
				</g>
				<g>
					<path fill="#C3C5C6" d="M357.113,76.753L357.113,76.753c0.787-0.467,1.78-0.241,2.207,0.503l0,0
						c0.428,0.744,0.134,1.736-0.652,2.203l0,0c-0.787,0.467-1.78,0.241-2.208-0.503l0,0
						C356.033,78.211,356.327,77.22,357.113,76.753z"/>
				</g>
				<polygon fill="#232020" points="376.49,85.075 380.303,82.809 380.884,83.82 377.071,86.086 				"/>
			</g>
			<path fill="none" stroke="#FFFFFF" stroke-width="1.8209" stroke-linecap="round" stroke-miterlimit="10" d="M399.196,69.846
				c-4.904,0.524-10.704-3.089-17.436-0.271"/>
			<path fill="none" stroke="#FFFFFF" stroke-width="1.8209" stroke-linecap="round" stroke-miterlimit="10" d="M435.535,49.038
				l-33.405,19.854c-0.343,0.203-0.689,0.371-1.042,0.506"/>
			
				<line fill="none" stroke="#FFFFFF" stroke-width="1.8209" stroke-linecap="round" stroke-miterlimit="10" x1="471.595" y1="27.605" x2="437.194" y2="48.052"/>
			
				<line fill="none" stroke="#FFFFFF" stroke-width="1.8209" stroke-linecap="round" stroke-miterlimit="10" x1="507.657" y1="6.173" x2="473.253" y2="26.62"/>
		</g>
		<path fill="#8A5F3D" d="M369.888,89.646l-54.891,32.624c0,0-1.281,3.493,2.354,4.097l54.891-32.624L369.888,89.646z"/>
		<g>
			
				<line fill="none" stroke="#FFFFFF" stroke-width="1.8209" stroke-linecap="round" stroke-miterlimit="10" x1="735.618" y1="343.974" x2="510.906" y2="5.796"/>
		</g>
		<g>
			<path fill="#FFFFFF" d="M740.216,333.261c1.842-0.154,3.704,0.156,5.504,0.576c1.801,0.445,3.57,1.037,5.276,1.795
				c1.714,0.74,3.356,1.666,4.899,2.795c1.51,1.145,2.986,2.545,3.751,4.576c0.33,1.02,0.4,2.207,0.024,3.262
				c-0.392,1.018-0.998,1.926-1.748,2.584c-1.483,1.35-3.177,2.264-4.913,2.965c-3.474,1.41-7.104,2.158-10.745,2.615
				c3.47-1.193,6.952-2.324,10.157-3.91c1.582-0.807,3.128-1.713,4.286-2.895c0.606-0.57,1.015-1.242,1.273-1.92
				c0.232-0.689,0.166-1.408-0.058-2.115c-0.217-0.721-0.708-1.396-1.216-2.045c-0.563-0.625-1.186-1.217-1.869-1.76
				c-1.352-1.107-2.89-2.023-4.46-2.879c-1.585-0.834-3.227-1.586-4.919-2.217C743.77,334.044,742.037,333.511,740.216,333.261z"/>
		</g>
		<g>
			<path fill="#FFFFFF" d="M749.631,329.296c2.557-0.234,5.136,0.227,7.635,0.795c2.499,0.617,4.953,1.436,7.32,2.486
				c2.379,1.027,4.66,2.307,6.798,3.877c1.065,0.791,2.067,1.691,2.982,2.717c0.896,1.039,1.729,2.211,2.223,3.633
				c0.501,1.402,0.539,3.076,0.03,4.527c-0.5,1.457-1.413,2.645-2.415,3.604c-1.018,0.957-2.139,1.717-3.285,2.383
				c-1.148,0.662-2.331,1.238-3.54,1.713c-4.821,1.947-9.852,3-14.907,3.621c4.817-1.643,9.643-3.225,14.094-5.416
				c2.186-1.129,4.36-2.354,5.963-4.008c0.787-0.818,1.447-1.715,1.749-2.674c0.308-0.955,0.278-1.953-0.077-2.936
				c-0.672-2.002-2.42-3.779-4.279-5.281c-1.873-1.539-4.011-2.807-6.19-3.994c-2.198-1.154-4.478-2.199-6.826-3.072
				C754.559,330.392,752.157,329.618,749.631,329.296z"/>
		</g>
		<g>
			<path fill="#FFFFFF" d="M727.276,334.567c-1.82,0.25-3.554,0.783-5.243,1.428c-1.692,0.631-3.335,1.383-4.92,2.217
				c-1.57,0.855-3.108,1.771-4.46,2.879c-0.684,0.543-1.306,1.135-1.868,1.76c-0.508,0.65-1,1.324-1.217,2.045
				c-0.224,0.707-0.289,1.426-0.058,2.115c0.259,0.678,0.667,1.35,1.273,1.92c1.158,1.182,2.704,2.088,4.286,2.895
				c3.205,1.586,6.688,2.717,10.157,3.91c-3.642-0.457-7.271-1.205-10.745-2.615c-1.736-0.701-3.43-1.615-4.913-2.965
				c-0.75-0.658-1.356-1.566-1.748-2.584c-0.376-1.055-0.306-2.242,0.024-3.262c0.765-2.031,2.241-3.432,3.752-4.576
				c1.542-1.129,3.185-2.055,4.898-2.795c1.707-0.758,3.476-1.35,5.276-1.795C723.572,334.724,725.434,334.415,727.276,334.567z"/>
		</g>
		<g>
			<path fill="#FFFFFF" d="M717.861,330.603c-2.525,0.322-4.928,1.096-7.273,1.975c-2.349,0.873-4.627,1.918-6.826,3.072
				c-2.18,1.188-4.317,2.455-6.19,3.994c-1.859,1.502-3.607,3.279-4.279,5.281c-0.354,0.984-0.385,1.98-0.077,2.936
				c0.302,0.959,0.962,1.855,1.749,2.674c1.603,1.654,3.777,2.879,5.963,4.008c4.451,2.191,9.276,3.773,14.094,5.416
				c-5.055-0.621-10.086-1.674-14.907-3.621c-1.209-0.475-2.392-1.051-3.54-1.713c-1.146-0.666-2.268-1.426-3.285-2.383
				c-1.002-0.959-1.915-2.146-2.415-3.604c-0.509-1.449-0.471-3.125,0.03-4.527c0.493-1.422,1.326-2.594,2.223-3.633
				c0.915-1.025,1.917-1.926,2.982-2.717c2.138-1.57,4.419-2.85,6.798-3.877c2.367-1.051,4.821-1.869,7.32-2.486
				C712.725,330.829,715.304,330.368,717.861,330.603z"/>
		</g>
	</g>
	<path fill="#754D29" d="M290.975,15.492c-8.96-4.867-14.743-5.994-22.753,0.32c-3.358,2.647-6.346,7.399-5.314,11.443
		c0.879,3.447,1.343,4.65,2.389,8.043c2.925,9.487-2.742,17.973-3.1,20.737c11.723-7.453,47.892-31.419,49.343-33.803
		c1.125-1.847-5.232-0.486-11.167-1.605C296.808,19.955,294.476,17.394,290.975,15.492z"/>
</g>
<path opacity="0.31" fill="#F1F0F0" d="M624.253,272.276c37.864,61.32-118.735,146.248-189.832,120.016
	c-75.425-27.83-140.597,46.799-245.148-11.406c-25.116-13.982-143.181,27.373-187.994-43.994
	c-10.855-17.289,48.363-66.072,140.233-67.32c44.264-0.602,108.15,38.32,163.538,38.32
	C475.394,307.892,608.333,246.495,624.253,272.276z"/>
</svg>
