<?xml version="1.0" encoding="utf-8"?>
<!-- Generator: Adobe Illustrator 16.0.0, SVG Export Plug-In . SVG Version: 6.00 Build 0)  -->
<!DOCTYPE svg PUBLIC "-//W3C//DTD SVG 1.1//EN" "http://www.w3.org/Graphics/SVG/1.1/DTD/svg11.dtd">
<svg version="1.1" id="Layer_1" xmlns="http://www.w3.org/2000/svg" xmlns:xlink="http://www.w3.org/1999/xlink" x="0px" y="0px"
	 width="553.319px" height="440.938px" viewBox="0 0 553.319 440.938" enable-background="new 0 0 553.319 440.938"
	 xml:space="preserve">
<linearGradient id="SVGID_1_" gradientUnits="userSpaceOnUse" x1="417.0522" y1="381.7441" x2="167.1216" y2="-51.1485">
	<stop  offset="0.5161" style="stop-color:#FFFFFF"/>
	<stop  offset="0.8226" style="stop-color:#FFFFFF;stop-opacity:0"/>
</linearGradient>
<path fill-rule="evenodd" clip-rule="evenodd" fill="url(#SVGID_1_)" d="M491.94,1.471c-12.452,13.32-4.586,21.694,7.091,32.08
	c3.194,2.841,11.331,7.842,11.537,12.738c0.154,3.693-4.743,7.662-6.092,11.063c-2.085,5.259-0.826,12.686-4.638,17.152
	c-3.965,4.648-10.45,3.273-15.447,5.798c-10.426,5.267-10.347,16.619-24.04,18.519c-9.485,1.316-16.098-0.605-16.151-11.453
	c-7.376-2.521-15.62-4.143-23.34-5.165c-2.736-0.362-6.055,1.796-8.739,3.413c-3.079,1.855-5.684,4.479-8.61,6.609
	c-3.99,2.908-7.98,5.252-7.575,11.582c0.19,2.981-2.795,6.215-4.481,9.256c-5.159,9.299-10.964,18.457-11.596,29.381
	c-0.375,6.478,0.664,13.038,1.109,19.559c0.044,0.643,0.213,1.67,0.61,1.836c7.588,3.182,10.067,12.666,18.33,14.9
	c3.289,0.891,4.592,2.604,4.201,6.081c-1.105,9.819,2.33,12.409,8.417,19.104c1.633,1.795,2.25,4.277,4.011,6.031
	c1.539,1.531,5.375,2.535,6.38,4.332c6.018,10.76-23.82,11.789-2.373,23.202c1.604,0.854,3.396,1.34,5.047,2.111
	c3.922,1.836,3.908,1.863,8.423,13.654c4.795-0.316,9.946-0.709,15.104-0.961c1.083-0.053,2.224,0.703,3.281,0.586
	c2.101-0.232,4.727-0.162,6.124-1.381c3.233-2.813,5.256-2.592,7.66,0.896c0.998,1.449,2.974,2.547,4.719,3.031
	c0.968,0.268,2.378-1.059,3.59-1.666c-0.63-1.195-1.207-2.424-1.899-3.582c-1.336-2.234-3.754-4.416-3.784-6.646
	c-0.024-1.773,2.561-4.105,4.537-5.16c0.978-0.523,3.513,0.92,4.792,2.082c4.687,4.256,6.735,4.182,11.229-0.201
	c0.966-0.943,3.5-1.385,4.695-0.799c5.991,2.938,13.569,2.305,18.336,8.203c0.531,0.658,3.347-0.02,4.778-0.73
	c1.729-0.859,2.952-2.732,4.679-3.607c4.329-2.197,7.163-0.873,8.042,3.771c1.321,6.99,4.754,11.785,12.111,13.289
	c1.375,0.281,2.76,1.455,3.733,2.57c2.228,2.551,4.229,5.301,6.264,8.014c0.574,0.768,1.492,1.863,1.285,2.488
	c-0.295,0.891-1.502,2.125-2.284,2.1c-3.225-0.104-6.654-0.039-9.599-1.139c-3.972-1.482-7.499-2.727-11.012,0.656
	c-0.345,0.332-0.828,0.57-1.29,0.721c-7.137,2.314-6.839,2.975-4.818,10.303c2.043,7.416,2.672,15.242,3.598,22.928
	c0.185,1.535-1.093,3.246-1.848,5.285c-4.137-3.861-7.798-7.277-12.027-11.225c0.932-4.4,0.058-9.455-3.218-14.357
	c-1.088-1.631-0.637-4.611-0.215-6.85c0.572-3.031,1.793-5.941,2.735-8.902c-0.562,0.072-1.123,0.145-1.685,0.217
	c-1.729-1.672-3.458-3.344-6.027-5.826c-0.495,0.383-2.187,1.227-3.188,2.578c-1.365,1.846-2.216,4.072-3.27,6.145
	c-2.87,5.646-3.249,5.77-8.93,2.828c-4.035-2.09-6.134-1.23-7.207,3.041c-1.067,4.238-9.938,3.689-12.995,3.365
	c-6.112-0.648-11.021-4.316-16.038-7.508c-1.818-1.156-5.215-2.076-5.33-4.533c-0.082-1.74,1.013-3.381,0.798-5.201
	c-0.245-2.078-1.068-4.381-2.868-5.609c-3.492-2.383-8.415-1.521-10.485,2.451c-3.065,5.883,1.383,13.061-0.624,19.068
	c-2.674,8.004-13.974,7.627-20.95,5.281c-9.283-3.121-16.706-10.715-27.015-7.326c-7.111,2.338-7.246,5.256-11.439,10.656
	c-4.043,5.203-16.915,10.756-23.392,10.863c-13.756,0.227,0.448-13.82,1.604-12.895c-5.951-4.764-12.085-4.865-18.269-4.762
	c-4.051,7.365-18.185,9.939-9.617,23.338c8.188,6.176,18.954,11.242,23.463,23.359c3.281,8.816,7.988,17.033,8.465,26.826
	c0.072,1.484,3.935,3.314,6.328,4.012c2.639,0.77,5.617,0.277,8.422,0.574c9.543,1.012,15.063,8.496,21.763,13.951
	c10.339,8.416-14.779,29.229-23.613,27.721c-13.11-2.236-16.632-16.488-29.784-19.111c-5.706-1.139-13.361-0.887-18.721,1.629
	c-6.276,2.947-4.894,4.373-5.529,10.785c-0.704,7.107-2.78,15.063-8.403,19.922c-4.749,4.104-14.916,3.221-13.549,11.496
	c0.294,1.779-4.221,4.535-6.78,6.523c-1.165,0.906-3.148,0.729-4.382,1.586c-2.228,1.551-4.165,3.254-7.148,1.693
	c-0.788-0.412-2.008-0.285-2.952-0.066c-13.542,3.127-24.24-2.291-33.88-11.088c-1.046-0.953-2.671-1.303-3.641-2.307
	c-1.799-1.861-3.416-3.924-4.916-6.039c-1.399-1.973-2.059-4.875-3.891-6.072c-10.643-6.957-20.185-10.012-31.424-1.15
	c-2.319,1.828-4.058,2.371-7.109,1.318c-2.068-0.713-5.54,0.275-7.357,1.76c-2.614,2.137-4.272,5.432-6.378,8.203
	c-3.055,4.018-5.463,9.018-9.43,11.697c-12.545,8.473-15.494-9.691-21.243-16.908c3.704-2.867,7.835-5.361,11.002-8.941
	c4.102-4.637,5.258-9.322,1.494-14.754c5.21-1.85,5.463-10.07,7.827-14.166c3.59-6.219,10.715-6.063,16.86-2.453
	c3.886,2.281,6.31,0.256,8.382-1.533c1.385-1.197,1.465-4.211,1.626-6.447c0.263-3.637,0.14-7.303,0.128-10.957
	c-0.005-1.58-0.142-3.16-0.218-4.738c-1.49,0.373-2.967,0.822-4.475,1.096c-1.44,0.262-3.436,0.992-4.247,0.344
	c-1.164-0.934-1.699-2.875-2.094-4.486c-0.567-2.309-0.765-4.707-1.86-7.281c4.106-4.031,12.199,6.055,15.123-2.654
	c4.352,0.559,8.061,1.035,12.387,1.59c0.182,0.795,0.565,2.469,1.108,4.844c1.449-0.762,2.823-1.068,3.54-1.926
	c6.263-7.48,15.109-9.834,23.887-12.512c5.187-1.584,10.231-3.67,15.262-5.719c4.48-1.822,4.889-6.199,6.172-10.137
	c1.47-4.51,2.993-9.143,5.405-13.174c4.558-7.615,3.463-14.488-3.522-20.02c-5.256-4.162-10.804-7.338-17.677-6.357
	c-2.793,0.398-5.87,1.48-8.007,3.236c-3.951,3.248-7.774,3.791-11.809,0.939c-3.633-2.568-6.771-5.861-10.49-8.273
	c-1.508-0.979-4.715-1.42-5.897-0.498c-6.628,5.16-13.994,7.348-21.733,3.449c-3.37-1.697-5.744-4.322-9.314-5.719
	c-4.296-1.678-9.229-1.186-13.222-3.785c-5.69-3.707-8.092-12.881-9.411-19.068c-1.824-8.564-0.314-16.676,0.113-25.264
	c0.416-8.354-0.867-16.899,4.356-24.076c4.324-5.942,12.218-8.239,12.152-16.46c-0.054-6.836-7.681-14.563-0.951-20.625
	c6.309-5.682,13.434,0.795,19.982,0.456c6.515-0.337,9.555-6.655,15.122-9.476c9.085-4.602,15.279,1.488,24.292,1.564
	c3.738,0.031,7.002-0.598,9.22-3.893c6.983-10.46-3.223-11.877-9.979-15.621c-6.29-3.486-15.066-5.934-18.547-12.886
	c-0.839-1.675,13.075-13.712,14.267-15.562c3.138-4.871,3.944-21.723-6.918-15.925c-5.038,2.688-9.879,5.755-14.736,8.769
	c-5.154,3.199-10.571,3.01-16.269,1.947c-3.067-0.572-6.298-0.421-9.449-0.35c-5.598,0.126-9.303-2.857-13.517-6.238
	c-4.847-3.889-10.973-6.496-16.921-8.585c-3.832-1.347-6.094,1.488-6.058,5.7c0.018,2.138,0.109,4.398-0.512,6.392
	c-1.719,5.518-7.409,9.288-13.356,9.83c-3.047,0.277-6.197,0.966-8.988,2.186c-5.22,2.281-5.176,3.13-1.303,7.645
	c2.503,2.917,0.822,5.567-1.477,7.264c-3.771,2.78-5.846,5.831-6.895,10.739c-2.044,9.569-9.505,11.354-17.317,5.951
	c-2.688-1.859-7.161-1.328-10.837-1.506c-2.62-0.127-5.267,0.525-7.908,0.587c-4.824,0.113-7.303-2.476-7.828-7.172
	c-0.585-5.227-1.153-10.457-1.894-15.662c-0.222-1.56-0.591-3.421-1.591-4.493c-5.059-5.429-4.559-10.204,1.291-14.705
	c3.177-2.445,5.91-5.518,8.612-8.516c1.954-2.166,3.858-3.609,6.905-2.357c1.375,0.564,2.856,0.865,4.28,1.318
	c7.644,2.433,9.187,0.803,12.505-6.53c3.553-7.853,7.47-15.833,17.454-18.567c3.344-0.916,5.779-5.531,8.284-8.727
	c0.393-0.501-0.737-2.863-1.729-3.66c-3.589-2.883-7.23-5.813-11.24-8.015c-1.968-1.081-4.86-1.085-7.214-0.744
	c-6.445,0.933-11.224-1.696-15.558-6.06c-4.681-4.709-8.159-4.521-11.487,1.351c-2.907,5.128-6.064,10.704-6.732,16.363
	c-0.854,7.235-5.311,10.803-10.236,14.302c-5.993,4.259-11.463,8.754-15.667,15.002c-1.922,2.857-5.978,4.279-9.065,6.354
	c-0.523-0.373-1.047-0.744-1.571-1.116c0,2.098,0.638,4.487-0.156,6.222c-1.073,2.346-3.039,4.465-5.12,6.01
	c-0.422,0.314-3.078-2.332-4.66-3.664c-0.363-0.307-0.446-0.979-0.826-1.23c-5.713-3.799-4.63-8.732-2.536-13.988
	c1.528-3.835,2.593-7.858,4.213-11.648c0.51-1.194,2.062-2.053,3.293-2.809c4.447-2.73,5.972-5.908,4.122-9.846
	c-1.924-4.1-5.719-5.318-9.652-4.064c-4.588,1.463-8.522,0.76-12.279-1.775c-1.085-0.73-2.242-2.028-2.403-3.199
	c-0.093-0.676,1.63-1.832,2.729-2.392c2.473-1.257,4.979-2.751,7.639-3.25c2.356-0.442,5.363-0.421,7.346,0.699
	c6.161,3.481,12.525,3.558,16.94-1.358c4.215-4.693,9.587-9.449,9.164-17.129c-0.134-2.441,0.76-5.293,2.096-7.373
	c1.604-2.498,4.195-2.689,6.945-0.837c1.304,0.878,3.211,0.859,5.572,1.419c-0.314,2.75-0.998,6.768,3.889,9.895
	c1.793,1.148,1.495,6.002,5.846,5.329c4.134-0.64,4.589-4.085,5.532-7.347c1.068-3.697,2.995-2.535,4.947-0.465
	c2.022,2.146,3.96,4.507,6.374,6.115c2.843,1.896,5.701,1.678,7.193-2.144c4.478-11.466,11.957-16.478,25.077-15.183
	c11.2,1.105,22.738-0.732,34.074-1.816c3.034-0.289,6.14-2.209,8.747-4.045c4.401-3.098,8.047-7.424,14.222-6.986
	c0.618,0.043,1.341-1.388,2.014-2.135c2.622-2.904,25.447,0,29.915,0c10.514,0,21.027,0,31.541,0c20.483,0,40.966,0,61.449,0
	c41.81,0,83.62-0.001,125.431,0C446.8,1.291,469.933-0.703,491.94,1.471z"/>
</svg>
