<?xml version="1.0" encoding="utf-8"?>
<!-- Generator: Adobe Illustrator 16.0.0, SVG Export Plug-In . SVG Version: 6.00 Build 0)  -->
<!DOCTYPE svg PUBLIC "-//W3C//DTD SVG 1.1//EN" "http://www.w3.org/Graphics/SVG/1.1/DTD/svg11.dtd">
<svg version="1.1" id="Layer_1" xmlns="http://www.w3.org/2000/svg" xmlns:xlink="http://www.w3.org/1999/xlink" x="0px" y="0px"
	 width="553.318px" height="440.938px" viewBox="0 0 553.318 440.938" enable-background="new 0 0 553.318 440.938"
	 xml:space="preserve">
<rect x="-15.841" y="-24.031" fill="#6FA7DA" width="600" height="476"/>
<linearGradient id="SVGID_1_" gradientUnits="userSpaceOnUse" x1="401.2307" y1="58.2886" x2="151.3018" y2="491.178" gradientTransform="matrix(1 0 0 -1 -0.02 440.0332)">
	<stop  offset="0.5161" style="stop-color:#FFFFFF"/>
	<stop  offset="0.8226" style="stop-color:#FFFFFF;stop-opacity:0"/>
</linearGradient>
<path fill="url(#SVGID_1_)" d="M476.098,1.473c-12.452,13.32-4.586,21.694,7.091,32.08c3.194,2.841,11.331,7.842,11.537,12.738
	c0.154,3.693-4.743,7.662-6.092,11.063c-2.085,5.259-0.826,12.686-4.638,17.152c-3.966,4.648-10.45,3.273-15.447,5.798
	c-10.426,5.267-10.347,16.619-24.04,18.519c-9.485,1.316-16.098-0.605-16.151-11.453c-7.376-2.521-15.62-4.143-23.34-5.165
	c-2.736-0.362-6.055,1.796-8.739,3.413c-3.079,1.855-5.684,4.479-8.609,6.609c-3.99,2.908-7.98,5.252-7.575,11.582
	c0.189,2.981-2.795,6.215-4.481,9.256c-5.158,9.299-10.964,18.457-11.596,29.381c-0.375,6.478,0.664,13.038,1.109,19.559
	c0.044,0.643,0.213,1.67,0.609,1.836c7.588,3.182,10.067,12.666,18.33,14.9c3.289,0.891,4.592,2.604,4.201,6.081
	c-1.104,9.819,2.33,12.409,8.417,19.104c1.633,1.795,2.25,4.277,4.011,6.031c1.539,1.531,5.375,2.535,6.38,4.332
	c6.019,10.76-23.819,11.79-2.373,23.202c1.604,0.854,3.396,1.34,5.048,2.111c3.922,1.836,3.907,1.863,8.423,13.654
	c4.795-0.316,9.945-0.709,15.104-0.961c1.083-0.053,2.225,0.703,3.281,0.586c2.101-0.232,4.727-0.162,6.124-1.381
	c3.233-2.813,5.256-2.592,7.66,0.896c0.998,1.448,2.974,2.547,4.719,3.03c0.968,0.269,2.378-1.059,3.59-1.666
	c-0.63-1.194-1.207-2.424-1.898-3.582c-1.336-2.233-3.754-4.416-3.784-6.645c-0.024-1.773,2.561-4.105,4.537-5.16
	c0.978-0.523,3.513,0.92,4.792,2.082c4.687,4.256,6.734,4.182,11.229-0.201c0.966-0.943,3.5-1.385,4.695-0.799
	c5.991,2.938,13.569,2.305,18.336,8.203c0.531,0.657,3.347-0.021,4.778-0.73c1.729-0.859,2.952-2.732,4.679-3.607
	c4.329-2.197,7.163-0.873,8.042,3.771c1.321,6.99,4.754,11.785,12.111,13.289c1.375,0.281,2.76,1.455,3.732,2.57
	c2.229,2.551,4.229,5.301,6.265,8.014c0.573,0.768,1.491,1.863,1.284,2.488c-0.295,0.891-1.502,2.125-2.283,2.1
	c-3.226-0.104-6.654-0.039-9.6-1.139c-3.972-1.482-7.499-2.728-11.012,0.655c-0.345,0.332-0.828,0.57-1.29,0.722
	c-7.137,2.313-6.839,2.975-4.818,10.303c1.778,6.448,6.369,21.552,1.634,27.647c-0.257,0.331-11.531-10.306-11.91-10.659
	c0.932-4.4,0.058-9.455-3.219-14.357c-1.088-1.631-0.637-4.611-0.215-6.85c0.572-3.031,1.793-5.941,2.735-8.902
	c-0.563,0.072-1.123,0.145-1.685,0.217c-1.729-1.672-3.459-3.344-6.027-5.826c-0.495,0.383-2.188,1.227-3.188,2.578
	c-1.364,1.846-2.216,4.072-3.27,6.145c-2.87,5.646-3.249,5.771-8.93,2.828c-4.035-2.09-6.135-1.229-7.207,3.041
	c-1.067,4.238-9.938,3.689-12.995,3.365c-6.112-0.648-11.021-4.316-16.038-7.508c-1.818-1.156-5.215-2.076-5.33-4.533
	c-0.082-1.74,1.013-3.381,0.798-5.201c-0.245-2.078-1.068-4.381-2.868-5.609c-3.492-2.383-8.415-1.52-10.484,2.451
	c-3.065,5.883,1.383,13.062-0.624,19.068c-2.675,8.004-13.975,7.627-20.95,5.281c-9.283-3.121-16.706-10.715-27.016-7.326
	c-7.11,2.338-7.245,5.256-11.438,10.656c-4.043,5.203-16.915,10.756-23.393,10.863c-13.756,0.227,0.448-13.82,1.604-12.896
	c-5.951-4.764-12.085-4.864-18.269-4.762c-4.052,7.364-18.186,9.938-9.617,23.338c8.188,6.177,18.954,11.242,23.463,23.358
	c3.281,8.816,7.988,17.033,8.465,26.826c0.072,1.484,3.935,3.314,6.328,4.012c2.639,0.771,5.617,0.277,8.422,0.574
	c9.543,1.013,15.063,8.496,21.763,13.951c10.339,8.416-14.778,29.229-23.612,27.721c-13.11-2.235-16.633-16.487-29.784-19.11
	c-5.706-1.14-13.361-0.888-18.722,1.629c-6.275,2.947-4.894,4.373-5.528,10.785c-0.704,7.106-2.78,15.063-8.403,19.922
	c-4.749,4.104-14.916,3.222-13.549,11.495c0.294,1.779-4.221,4.535-6.78,6.523c-1.165,0.906-3.147,0.729-4.382,1.586
	c-2.228,1.551-4.165,3.254-7.147,1.693c-0.788-0.412-2.008-0.285-2.952-0.066c-13.542,3.127-24.24-2.291-33.88-11.088
	c-1.046-0.953-2.671-1.303-3.642-2.307c-1.799-1.861-3.416-3.924-4.916-6.039c-1.398-1.973-2.059-4.875-3.891-6.072
	c-10.643-6.957-20.185-10.012-31.424-1.149c-2.319,1.827-4.059,2.37-7.109,1.317c-2.067-0.713-5.54,0.275-7.356,1.76
	c-2.614,2.138-4.272,5.433-6.378,8.203c-3.056,4.02-5.464,9.02-9.431,11.697c-12.545,8.473-15.494-9.691-21.243-16.908
	c3.704-2.867,7.835-5.36,11.002-8.94c4.103-4.638,5.259-9.322,1.494-14.754c5.21-1.851,5.463-10.07,7.827-14.166
	c3.59-6.22,10.715-6.063,16.86-2.453c3.886,2.28,6.31,0.256,8.382-1.533c1.385-1.196,1.465-4.211,1.626-6.446
	c0.263-3.638,0.14-7.304,0.128-10.957c-0.005-1.58-0.142-3.16-0.218-4.738c-1.49,0.373-2.967,0.822-4.476,1.096
	c-1.439,0.262-3.436,0.992-4.246,0.344c-1.164-0.934-1.699-2.875-2.095-4.486c-0.566-2.309-0.765-4.707-1.859-7.28
	c4.105-4.031,12.198,6.056,15.123-2.653c4.352,0.559,8.061,1.034,12.387,1.59c0.182,0.795,0.564,2.469,1.107,4.844
	c1.449-0.762,2.823-1.068,3.54-1.926c6.264-7.48,15.109-9.834,23.888-12.513c5.187-1.584,10.23-3.67,15.262-5.719
	c4.48-1.821,4.889-6.199,6.172-10.138c1.47-4.51,2.993-9.143,5.405-13.174c4.558-7.615,3.463-14.488-3.522-20.02
	c-5.256-4.162-10.804-7.338-17.677-6.357c-2.793,0.398-5.87,1.48-8.007,3.236c-3.951,3.248-7.774,3.791-11.81,0.939
	c-3.633-2.568-6.771-5.861-10.489-8.273c-1.508-0.979-4.715-1.42-5.897-0.498c-6.628,5.16-13.994,7.348-21.732,3.449
	c-3.37-1.697-5.744-4.322-9.314-5.719c-4.296-1.678-9.229-1.187-13.222-3.785c-5.69-3.707-8.092-12.881-9.411-19.068
	c-1.824-8.564-0.314-16.676,0.113-25.264c0.416-8.354-0.867-16.899,4.355-24.076c4.324-5.942,12.218-8.239,12.152-16.46
	c-0.054-6.836-7.682-14.563-0.951-20.625c6.309-5.682,13.434,0.795,19.982,0.456c6.515-0.337,9.555-6.655,15.121-9.476
	c9.086-4.602,15.279,1.488,24.292,1.564c3.738,0.031,7.003-0.598,9.221-3.893c6.982-10.46-3.224-11.877-9.979-15.621
	c-6.29-3.486-15.065-5.934-18.547-12.886c-0.839-1.675,13.075-13.712,14.268-15.562c3.138-4.871,3.943-21.723-6.919-15.925
	c-5.037,2.688-9.879,5.755-14.735,8.769c-5.154,3.199-10.571,3.01-16.27,1.947c-3.066-0.572-6.298-0.421-9.448-0.35
	c-5.599,0.126-9.304-2.857-13.518-6.238c-4.847-3.889-10.973-6.496-16.921-8.585c-3.832-1.347-6.094,1.488-6.058,5.7
	c0.018,2.138,0.108,4.398-0.513,6.392c-1.719,5.518-7.408,9.288-13.355,9.83c-3.047,0.277-6.197,0.966-8.988,2.186
	c-5.22,2.281-5.176,3.13-1.303,7.645c2.503,2.917,0.822,5.567-1.478,7.264c-3.771,2.78-5.846,5.831-6.895,10.739
	c-2.044,9.569-9.505,11.354-17.317,5.951c-2.688-1.859-7.161-1.328-10.837-1.506c-2.62-0.127-5.267,0.525-7.908,0.587
	c-4.823,0.113-7.303-2.476-7.827-7.172c-0.585-5.227-1.153-10.457-1.895-15.662c-0.222-1.56-0.591-3.421-1.591-4.493
	c-5.059-5.429-4.559-10.204,1.291-14.705c3.177-2.445,5.91-5.518,8.612-8.516c1.954-2.166,3.857-3.609,6.904-2.357
	c1.375,0.564,2.856,0.865,4.28,1.318c7.645,2.433,9.188,0.803,12.505-6.53c3.553-7.853,7.47-15.833,17.454-18.567
	c3.344-0.916,5.779-5.531,8.284-8.727c0.393-0.501-0.737-2.863-1.729-3.66c-3.589-2.883-7.229-5.813-11.239-8.015
	c-1.969-1.081-4.86-1.085-7.214-0.744c-6.445,0.933-11.225-1.696-15.559-6.06c-4.681-4.709-8.159-4.521-11.487,1.351
	c-2.906,5.128-6.063,10.704-6.731,16.363c-0.854,7.235-5.312,10.803-10.236,14.302c-5.993,4.259-11.463,8.754-15.667,15.002
	c-1.922,2.857-5.978,4.279-9.064,6.354c-0.523-0.373-1.047-0.744-1.571-1.116c0,2.098,0.638,4.487-0.156,6.222
	c-1.073,2.346-3.039,4.465-5.12,6.01c-0.422,0.314-3.078-2.332-4.66-3.664c-0.362-0.307-0.445-0.979-0.825-1.23
	c-5.713-3.799-4.63-8.732-2.536-13.988c1.527-3.835,2.593-7.858,4.213-11.648c0.51-1.194,2.062-2.053,3.293-2.809
	c4.447-2.73,5.972-5.908,4.122-9.846c-1.924-4.1-5.719-5.318-9.652-4.064c-4.588,1.463-8.521,0.76-12.278-1.775
	c-1.086-0.73-2.242-2.028-2.403-3.199c-0.093-0.676,1.63-1.832,2.729-2.392c2.474-1.257,4.979-2.751,7.64-3.25
	c2.355-0.442,5.362-0.421,7.346,0.699c6.161,3.481,12.525,3.558,16.94-1.358c4.215-4.693,9.587-9.449,9.163-17.129
	c-0.134-2.441,0.761-5.293,2.097-7.373c1.604-2.498,4.194-2.689,6.944-0.837c1.305,0.878,3.212,0.859,5.572,1.419
	c-0.313,2.75-0.998,6.768,3.89,9.895c1.793,1.148,1.494,6.002,5.846,5.329c4.134-0.64,4.589-4.085,5.532-7.347
	c1.067-3.697,2.994-2.535,4.946-0.465c2.022,2.146,3.96,4.507,6.374,6.115c2.844,1.896,5.701,1.678,7.193-2.144
	c4.478-11.466,11.957-16.478,25.077-15.183c11.2,1.105,22.738-0.732,34.074-1.816c3.033-0.289,6.14-2.209,8.746-4.045
	c4.401-3.098,8.048-7.424,14.223-6.986c0.618,0.043,1.341-1.388,2.014-2.135c2.622-2.904,25.447,0,29.915,0
	c10.514,0,21.027,0,31.541,0c20.483,0,40.966,0,61.449,0c41.81,0,83.62-0.001,125.431,0C430.958,1.293,454.091-0.701,476.098,1.473z
	"/>
<path display="none" fill="none" stroke="#3E9FFB" stroke-width="9" stroke-miterlimit="10" d="M258.123,440.043
	c6.494-0.723,11.15,0.172,16.653-4.273c3.748-3.028,4.466-8.186,7.82-11.503c3.428-3.39,8.879-3.533,12.093-7.189
	c3.923-4.461,5.449-10.148,6.313-15.872c0.824-5.453,0.161-10.487,5.952-13.254c5.462-2.609,12.817-2.637,18.632-1.476
	c13.151,2.623,16.674,16.875,29.784,19.11c10.603,1.808,28.203-13.476,24.706-24.605c-1.848-5.879-7.533-10.2-12.568-13.219
	c-6.42-3.849-11.96-2.451-18.71-4.422c-2.394-0.697-6.256-2.527-6.328-4.012c-0.477-9.793-5.184-18.01-8.465-26.826
	c-2.001-5.377-5.997-10.671-10.472-14.199c-4.061-3.201-9.396-5.218-12.592-9.427c-6.629-8.731,1.919-20.095,11.067-22.591
	c3.51-0.958,11.157-0.71,13.695,2.533c3.787,4.84-7.654,8.717-3.253,12.954c2.337,2.249,8.391,1.081,11.188,0.348
	c4.563-1.197,9.081-3.118,12.858-5.979c3.672-2.78,5.214-6.414,8.042-9.814c6.449-7.754,17.715-5.188,25.375-1.132
	c7.408,3.923,16.017,7.616,24.462,4.327c5.452-2.123,5.822-6.509,5.318-11.758c-0.578-6.029,0.159-22.716,11.034-15.295
	c1.8,1.229,2.623,3.531,2.868,5.609c0.215,1.82-0.88,3.461-0.798,5.201c0.115,2.457,3.512,3.377,5.33,4.533
	c5.017,3.191,9.926,6.859,16.038,7.508c3.057,0.324,11.928,0.873,12.995-3.365c1.072-4.271,3.172-5.131,7.207-3.041
	c5.679,2.941,6.06,2.818,8.927-2.823c1.316-2.589,2.438-6.89,5.722-7.397c3.211-0.497,7.895,3.172,7.818,6.502
	c-0.05,2.204-1.692,4.502-2.103,6.68c-0.422,2.238-0.873,5.219,0.217,6.853c3.692,5.535,1.556,12.152,6.155,17.341
	c3.922,4.424,11.523,11.103,10.807,0.615c-0.467-6.825-1.652-13.987-3.469-20.59c-2.021-7.328-2.318-7.989,4.818-10.303
	c0.462-0.151,0.944-0.39,1.289-0.721c6.336-6.097,16.471,5.552,21.557-0.444c2.941-3.468-3.273-8.782-5.584-10.697
	c-6.783-5.624-13.599-6.354-16.206-15.535c-3.549-12.497-8.34-0.279-16.288-1.119c-7.308-0.771-13.764-9.46-21.611-7.636
	c-4.852,1.127-6.804,4.827-12.093,2.223c-4.433-2.182-12.879-5.083-9.828,4.055c0.574,1.72,3.96,6.83,1.9,8.479
	c-1.813,1.453-9.234-3.511-11.718-3.62c-7.062-0.31-13.808,3.2-21.066,2.518c-2.807-0.264-5.048-0.803-6.813-3.078
	c-1.613-2.08-1.464-5.004-2.998-7.112c-1.541-2.118-4.278-3.077-6.52-4.25c-3.985-2.086-13.58-6.196-8.816-11.994
	c3.901-4.751,13.694-6.179,7.071-13.421c-4.204-4.598-9.407-7.942-12.778-13.336c-3.08-4.928-3.343-10.38-5.346-15.661
	c-4.465-11.767-19.653-14.201-23.011-27.279c-4.095-15.947,4.819-31.065,10.979-44.884c4.831-10.838,11.645-23.075,22.772-28.611
	c6.03-3.001,13.828-2.152,19.84,0.666c11.348,5.319,21.841,21.403,35.256,10.363c7.435-6.118,11.704-11.913,20.898-15.708
	c9.266-3.824,11.747-8.748,14.637-18.076c2.088-6.74,7.354-14.691,2.347-21.011c-9.804-12.376-31.916-20.37-15.036-38.427"/>
<g>
	<g>
		<path fill-rule="evenodd" clip-rule="evenodd" fill="#231E20" d="M430.512,164.594c0,0.003,0,0.005,0,0.008
			c-0.008,0.001-0.014,0.001-0.021,0.002c0.002-0.002,0.006-0.003,0.009-0.005C430.503,164.598,430.508,164.596,430.512,164.594z"/>
		<polygon fill-rule="evenodd" clip-rule="evenodd" fill="#231E20" points="430.49,164.604 430.49,164.604 430.499,164.6 		"/>
		<polygon fill-rule="evenodd" clip-rule="evenodd" fill="#231E20" points="430.512,164.594 430.512,164.594 430.499,164.6 		"/>
		<path fill="#93A7E2" d="M405.831,148.148l5.041,12.181c13.052,6.038,39.175,7.923,63.839-3.838l7.989-12.4
			c0,0-29.323,1.577-60.415-3.229L405.831,148.148z"/>
		<g>
			<path fill="none" d="M482.7,144.09c0,0-0.002,0-0.007,0L482.7,144.09z"/>
			<path fill="#E9EDF5" d="M482.694,144.091c0.005,0,0.007,0,0.007,0c-34.468,23.385-76.869,4.058-76.869,4.058l72.787-3.158
				L482.694,144.091z"/>
			<path fill="#94A0E9" d="M422.285,140.862c30.829,4.766,59.918,3.255,60.408,3.229l-73.604,4.126l-3.259-0.069L422.285,140.862z"
				/>
		</g>
		<path fill="#0F0D60" d="M409.09,148.217c0,0,39.515,14.88,69.528-3.227c0,0-26.946,1.448-55.521-3.04L409.09,148.217z"/>
		<polygon fill="#E9EDF5" points="441.219,154.331 448.39,153.905 457.26,145.487 452.758,145.36 		"/>
		<polygon fill="#1772E2" points="448.492,153.808 450.693,153.645 457.282,146.902 457.26,145.487 		"/>
		<polygon fill="#E9EDF5" points="416.725,150.909 423.183,152.048 434.267,144.302 429.517,143.73 		"/>
		<polygon fill="#1772E2" points="423.183,152.048 425.143,152.336 434.215,145.586 434.267,144.302 		"/>
	</g>
	<g>
		<path fill="#453BB1" d="M430.598,133.755c-0.71,1.266,0.175,3.037,0.505,3.6c1.995,3.386,0.165,14.791,0.148,15.887
			c1.188,0.167,2.012,0.203,3.245,0.333c0.004-0.144,0.791-6.208,1.044-7c0.416-1.303,1.177-6.583,1.509-7.568
			c0.521-1.545,0.731-3.094,0.683-4.699C435.242,133.999,430.49,133.729,430.598,133.755z"/>
		<path fill="#F7C9B9" d="M438.057,130.899c-0.102,0.405,0.003,0.862,0.209,1.319c0-0.059-0.001-0.117-0.001-0.177
			c0.567,0.326,0.72,0.333,1.226,0.053c0.192-0.106,0.357-0.264,0.553-0.364c0.565-0.29,0.642-0.399,0.396-1.037
			C439.641,129.905,438.254,130.105,438.057,130.899z"/>
		<path fill="#E4F1FA" d="M440.636,129.122c-0.759-0.11-1.517-0.23-2.271-0.361c-0.108-0.019-0.269-0.146-0.284-0.242
			c-0.24-1.553-1.098-2.836-1.751-4.228c-0.86-1.833-0.713-2.706-0.773-2.712c0.029,0.061-0.365-1.337-3.078-1.239
			c0,0.05,0,0.1,0,0.199c0-0.1,0-0.149,0-0.199c0-0.026,0.131-0.083,0,0c0,0.003-2.104,3.759-2.445,5.899
			c-0.194,1.218-0.429,2.43-0.679,3.637c-0.23,1.12-0.508,2.23-0.773,3.381c0.604,0.149,2.699,2.273,9.563,1.094
			c-0.001-0.016,0.126-1.947,0.122-2.311c-0.206-0.457-0.31-0.736-0.208-1.142c0.197-0.794,1.584-0.994,2.382-0.207
			c-0.018-0.044-0.036-0.09-0.056-0.14c0.085,0.026,0.156,0.046,0.222,0.063C440.574,130.134,440.615,129.622,440.636,129.122z"/>
		<path fill="#F7C9B9" d="M435.556,121.579C435.616,121.585,435.504,121.563,435.556,121.579c0.007-0.035,0.072-0.628,0.469-1.117
			c0.028-0.036,0.104-0.134,0.176-0.171c0.186-0.095,0.375-0.189,0.572-0.251c0.387-0.12,0.758-0.229,0.58-0.772
			c-0.018-0.057,0.044-0.136,0.056-0.207c0.045-0.248,0.084-0.495,0.126-0.743c0.623-0.542-0.301-0.814-0.294-1.202
			c0.023-0.034,0.047-0.067,0.071-0.101c-1.805,0.739-3.232,2.23-4.834,3.324c0,0.035,0-0.026,0,0
			C433.606,120.34,435.078,120.554,435.556,121.579z"/>
		<path fill="#F7C9B9" d="M441.53,129.147c-0.111,0.046-0.238,0.071-0.343,0.056c-0.185-0.025-0.367-0.055-0.551-0.081
			c-0.021,0.5-0.062,1.012-0.031,1.494c0.107,0.03,0.195,0.055,0.272,0.094c0.329,0.167,0.64,0.372,0.977,0.523
			c0.334,0.152,1.28-0.965,1.317-0.918C443.299,129.532,442.573,128.922,441.53,129.147z"/>
		<g>
			<g>
				<path fill="#9FA1A3" d="M470.825,112.583l-21.661,12.811c-0.136,0.082-0.161,0.214-0.132,0.265l0,0
					c0.029,0.051,0.159,0.103,0.297,0.021l21.603-12.913c0.136-0.082,0.225-0.189,0.195-0.24l0,0
					C471.099,112.476,470.963,112.501,470.825,112.583z"/>
				<polygon fill="#C2C4C6" points="450.538,124.466 447.804,126.09 448.047,126.513 450.781,124.888 				"/>
				<g>
					<g>
						<path fill="#9FA1A3" d="M469.292,113.604c0.271-0.161,0.373-0.503,0.226-0.76l0,0c-0.148-0.256-0.49-0.334-0.762-0.173
							c-0.271,0.162-0.372,0.503-0.225,0.759l0,0C468.679,113.687,469.021,113.765,469.292,113.604z M468.781,113.282
							c-0.073-0.127-0.023-0.296,0.11-0.375c0.134-0.079,0.304-0.041,0.377,0.086l0,0c0.071,0.126,0.021,0.295-0.112,0.375
							C469.023,113.447,468.854,113.408,468.781,113.282L468.781,113.282z"/>
					</g>
					<g>
						<path fill="#9FA1A3" d="M469.422,113.5c0.17-0.179,0.217-0.446,0.096-0.657l0,0c-0.148-0.256-0.49-0.334-0.762-0.173
							c-0.271,0.162-0.372,0.503-0.225,0.759l0,0c0.121,0.212,0.376,0.302,0.614,0.237 M468.781,113.282
							c-0.073-0.127-0.023-0.296,0.11-0.375c0.134-0.079,0.304-0.041,0.377,0.086l0,0c0.071,0.126,0.021,0.295-0.112,0.375
							C469.023,113.447,468.854,113.408,468.781,113.282L468.781,113.282z"/>
					</g>
				</g>
				<g>
					<g>
						<path fill="#9FA1A3" d="M463.975,116.753c0.17-0.178,0.217-0.446,0.096-0.656l0,0c-0.147-0.256-0.49-0.334-0.761-0.173
							c-0.271,0.161-0.373,0.503-0.226,0.76l0,0c0.121,0.211,0.377,0.302,0.613,0.236 M463.333,116.534
							c-0.072-0.126-0.021-0.295,0.112-0.375c0.133-0.08,0.303-0.042,0.374,0.085l0,0c0.073,0.127,0.023,0.296-0.109,0.375
							C463.576,116.7,463.406,116.661,463.333,116.534L463.333,116.534z"/>
					</g>
				</g>
				<g>
					<g>
						<path fill="#9FA1A3" d="M458.427,120.049c0.271-0.161,0.373-0.503,0.225-0.759l0,0c-0.146-0.257-0.489-0.335-0.761-0.174
							s-0.372,0.503-0.225,0.76l0,0C457.813,120.132,458.156,120.21,458.427,120.049z M457.916,119.727
							c-0.073-0.126-0.023-0.295,0.11-0.375s0.303-0.041,0.376,0.085l0,0c0.072,0.127,0.022,0.296-0.111,0.375
							C458.157,119.892,457.989,119.854,457.916,119.727L457.916,119.727z"/>
					</g>
					<g>
						<path fill="none" d="M458.557,119.945c0.17-0.178,0.216-0.446,0.095-0.656l0,0c-0.146-0.257-0.489-0.335-0.761-0.174
							s-0.372,0.503-0.225,0.76l0,0c0.121,0.212,0.375,0.302,0.613,0.236 M457.916,119.727c-0.073-0.126-0.023-0.295,0.11-0.375
							s0.303-0.041,0.376,0.085l0,0c0.072,0.127,0.022,0.296-0.111,0.375C458.157,119.892,457.989,119.854,457.916,119.727
							L457.916,119.727z"/>
					</g>
				</g>
				<g>
					<g>
						<path fill="#9FA1A3" d="M453.002,123.285c0.271-0.161,0.373-0.503,0.226-0.759l0,0c-0.147-0.257-0.49-0.335-0.762-0.174
							s-0.373,0.503-0.225,0.76l0,0C452.389,123.368,452.731,123.446,453.002,123.285z M452.491,122.963
							c-0.073-0.126-0.023-0.295,0.11-0.375c0.135-0.08,0.303-0.041,0.377,0.086l0,0c0.072,0.126,0.022,0.295-0.112,0.375
							C452.733,123.128,452.565,123.09,452.491,122.963L452.491,122.963z"/>
					</g>
					<g>
						<path fill="none" d="M453.132,123.182c0.17-0.178,0.216-0.446,0.096-0.656l0,0c-0.147-0.257-0.49-0.335-0.762-0.174
							s-0.373,0.503-0.225,0.76l0,0c0.122,0.212,0.376,0.302,0.613,0.237 M452.491,122.963c-0.073-0.126-0.023-0.295,0.11-0.375
							c0.135-0.08,0.303-0.041,0.377,0.086l0,0c0.072,0.126,0.022,0.295-0.112,0.375
							C452.733,123.128,452.565,123.09,452.491,122.963L452.491,122.963z"/>
					</g>
				</g>
				<g>
					<path fill="#C2C4C6" d="M446.763,124.153l0.388-0.23c0.149-0.089,0.338-0.046,0.42,0.096l0.338,0.587
						c0.081,0.142,0.024,0.331-0.126,0.42l-0.387,0.23c-0.149,0.089-0.338,0.045-0.42-0.096l-0.338-0.587
						C446.557,124.431,446.613,124.242,446.763,124.153z"/>
					<path fill="#C2C4C6" d="M448.986,122.578L448.986,122.578c0.146-0.087,0.331-0.045,0.411,0.094l0.552,0.959
						c0.079,0.139,0.024,0.323-0.122,0.411l0,0c-0.146,0.087-0.331,0.045-0.411-0.094l-0.552-0.96
						C448.784,122.85,448.839,122.666,448.986,122.578z"/>
					<polygon fill="#404041" points="447.07,123.717 448.829,122.671 449.67,124.135 447.91,125.182 					"/>
					<g>
						<path fill="#C2C4C6" d="M446.783,123.715l0.212-0.126l0.765,1.33c0.18,0.314,0.597,0.409,0.929,0.212l0.557-0.331
							c0.332-0.197,0.455-0.613,0.274-0.927l-0.765-1.33l0.213-0.126l0.764,1.33c0.244,0.424,0.077,0.987-0.371,1.253l-0.557,0.331
							c-0.449,0.267-1.013,0.138-1.257-0.286L446.783,123.715z"/>
					</g>
					<path fill="#232020" d="M446.952,124.564L446.952,124.564c0.093-0.056,0.211-0.029,0.262,0.06l0,0
						c0.051,0.088,0.016,0.206-0.077,0.261l0,0c-0.093,0.056-0.211,0.029-0.262-0.06l0,0
						C446.824,124.737,446.86,124.62,446.952,124.564z"/>
					<g>
						<path fill="#C2C4C6" d="M445.961,124.252L445.961,124.252c0.01-0.021,0.036-0.032,0.058-0.022l1.02,0.442
							c0.021,0.009,0.029,0.034,0.02,0.056l0,0c-0.012,0.021-0.038,0.031-0.059,0.022l-1.02-0.442
							C445.958,124.299,445.949,124.274,445.961,124.252z"/>
					</g>
					<g>
						<path fill="#C2C4C6" d="M445.863,124.058L445.863,124.058c0.119-0.071,0.269-0.037,0.332,0.076l0,0
							c0.065,0.112,0.021,0.261-0.098,0.332l0,0c-0.119,0.07-0.269,0.037-0.332-0.076l0,0
							C445.699,124.277,445.744,124.128,445.863,124.058z"/>
					</g>
					
						<rect x="448.778" y="125.129" transform="matrix(-0.8596 0.5109 -0.5109 -0.8596 899.1528 3.3835)" fill="#232020" width="0.668" height="0.176"/>
				</g>
				<path fill="none" stroke="#FFFFFF" stroke-width="0.5" stroke-linecap="round" stroke-miterlimit="10" d="M452.199,123.018
					c-0.738,0.079-1.611-0.465-2.626-0.041"/>
				<path fill="none" stroke="#FFFFFF" stroke-width="0.5" stroke-linecap="round" stroke-miterlimit="10" d="M457.671,119.885
					l-5.029,2.989c-0.052,0.031-0.104,0.056-0.157,0.077"/>
				
					<line fill="none" stroke="#FFFFFF" stroke-width="0.5" stroke-linecap="round" stroke-miterlimit="10" x1="463.102" y1="116.657" x2="457.921" y2="119.736"/>
				
					<line fill="none" stroke="#FFFFFF" stroke-width="0.5" stroke-linecap="round" stroke-miterlimit="10" x1="468.531" y1="113.43" x2="463.351" y2="116.509"/>
			</g>
			<path fill="#895E3C" d="M447.786,125.999l-8.266,4.913c0,0-0.192,0.526,0.354,0.617l8.265-4.913L447.786,125.999z"/>
			<g>
				
					<line fill="none" stroke="#FFFFFF" stroke-width="0.5" stroke-miterlimit="10" x1="502.858" y1="164.296" x2="469.021" y2="113.373"/>
			</g>
			<g>
				<path fill="#FFFFFF" d="M503.55,162.683c0,0,0.104-0.015,0.286-0.023c0.185,0.012,0.459,0.022,0.764,0.107
					c0.305,0.088,0.668,0.191,1.024,0.391c0.174,0.107,0.364,0.204,0.527,0.367c0.164,0.148,0.336,0.332,0.422,0.593
					c0.052,0.13,0.069,0.267,0.033,0.415c-0.006,0.154-0.081,0.262-0.153,0.372c-0.064,0.124-0.156,0.195-0.248,0.262
					c-0.092,0.065-0.176,0.152-0.271,0.191c-0.368,0.203-0.733,0.291-1.038,0.372c-0.305,0.083-0.573,0.083-0.752,0.115
					c-0.182,0.021-0.286,0.025-0.286,0.025s0.388-0.172,0.949-0.407c0.281-0.119,0.593-0.281,0.892-0.477
					c0.126-0.105,0.288-0.219,0.349-0.344c0.038-0.061,0.086-0.121,0.073-0.183c0.021-0.058,0.009-0.122-0.022-0.187
					c-0.033-0.131-0.146-0.276-0.277-0.396c-0.121-0.128-0.279-0.239-0.426-0.344c-0.304-0.205-0.612-0.377-0.888-0.501
					c-0.278-0.123-0.508-0.224-0.68-0.275C503.652,162.709,503.55,162.683,503.55,162.683z"/>
			</g>
			<g>
				<path fill="#FFFFFF" d="M504.967,162.085c0,0,0.141-0.025,0.399-0.013c0.253,0.018,0.62,0.055,1.041,0.179
					c0.419,0.125,0.909,0.287,1.396,0.564c0.474,0.278,1.011,0.625,1.279,1.285c0.133,0.334,0.045,0.759-0.155,1.026
					c-0.19,0.285-0.453,0.451-0.694,0.6c-0.496,0.282-0.992,0.428-1.412,0.538c-0.421,0.114-0.781,0.159-1.03,0.197
					c-0.251,0.029-0.395,0.045-0.395,0.045s0.135-0.051,0.371-0.14c0.238-0.076,0.57-0.217,0.966-0.369
					c0.396-0.147,0.843-0.37,1.266-0.643c0.42-0.273,0.784-0.686,0.61-1.092c-0.152-0.427-0.615-0.792-1.034-1.071
					c-0.433-0.282-0.87-0.513-1.26-0.674s-0.722-0.291-0.963-0.348C505.114,162.105,504.967,162.085,504.967,162.085z"/>
			</g>
			<g>
				<path fill="#FFFFFF" d="M501.602,162.879c0,0-0.102,0.027-0.278,0.074c-0.171,0.051-0.401,0.152-0.68,0.274
					c-0.275,0.125-0.584,0.296-0.888,0.501c-0.146,0.104-0.305,0.215-0.426,0.344c-0.131,0.12-0.244,0.266-0.277,0.396
					c-0.031,0.065-0.043,0.128-0.022,0.187c-0.013,0.062,0.035,0.122,0.073,0.183c0.061,0.125,0.223,0.239,0.349,0.344
					c0.299,0.195,0.61,0.358,0.892,0.477c0.563,0.235,0.949,0.408,0.949,0.407c0,0-0.104-0.004-0.286-0.025
					c-0.179-0.032-0.447-0.032-0.752-0.115c-0.305-0.082-0.67-0.169-1.038-0.372c-0.095-0.04-0.179-0.126-0.271-0.191
					c-0.092-0.067-0.184-0.139-0.248-0.262c-0.072-0.111-0.147-0.218-0.153-0.372c-0.036-0.148-0.019-0.285,0.033-0.415
					c0.086-0.261,0.258-0.444,0.422-0.593c0.162-0.163,0.354-0.26,0.527-0.367c0.356-0.2,0.72-0.303,1.023-0.391
					c0.306-0.084,0.58-0.095,0.765-0.106C501.497,162.865,501.602,162.879,501.602,162.879z"/>
			</g>
			<g>
				<path fill="#FFFFFF" d="M500.184,162.282c0,0-0.146,0.02-0.385,0.083c-0.241,0.057-0.573,0.187-0.963,0.348
					c-0.39,0.161-0.827,0.392-1.259,0.674c-0.42,0.279-0.882,0.644-1.034,1.07c-0.173,0.407,0.19,0.819,0.61,1.092
					c0.423,0.273,0.869,0.496,1.267,0.643c0.395,0.152,0.727,0.293,0.965,0.369c0.236,0.089,0.371,0.14,0.371,0.14
					s-0.144-0.017-0.395-0.045c-0.249-0.038-0.609-0.083-1.03-0.196c-0.42-0.11-0.916-0.256-1.412-0.538
					c-0.241-0.149-0.504-0.315-0.694-0.6c-0.2-0.267-0.288-0.692-0.155-1.026c0.269-0.66,0.806-1.006,1.279-1.285
					c0.485-0.277,0.976-0.438,1.395-0.563c0.421-0.124,0.788-0.162,1.041-0.179C500.043,162.257,500.184,162.282,500.184,162.282z"
					/>
			</g>
		</g>
		<path fill="#754C28" d="M435.904,114.833c-1.35-0.732-2.22-0.902-3.426,0.048c-0.505,0.399-0.956,1.114-0.801,1.723
			c0.132,0.52,0.202,0.7,0.36,1.211c0.44,1.428-0.413,2.706-0.467,3.123c1.765-1.122,7.211-4.731,7.43-5.09
			c0.169-0.278-0.787-0.074-1.681-0.242C436.781,115.505,436.431,115.119,435.904,114.833z"/>
	</g>
	<path opacity="0.31" fill="#EFEFEF" d="M486.089,153.5c5.701,9.233-17.88,22.021-28.585,18.071
		c-11.357-4.19-21.171,7.047-36.915-1.717c-3.781-2.105-21.56,4.122-28.308-6.625c-1.636-2.603,7.282-9.949,21.116-10.137
		c6.665-0.09,16.285,5.771,24.625,5.771C463.674,158.863,483.692,149.618,486.089,153.5z"/>
</g>
</svg>
