<?xml version="1.0" encoding="utf-8"?>
<!-- Generator: Adobe Illustrator 16.0.0, SVG Export Plug-In . SVG Version: 6.00 Build 0)  -->
<!DOCTYPE svg PUBLIC "-//W3C//DTD SVG 1.1//EN" "http://www.w3.org/Graphics/SVG/1.1/DTD/svg11.dtd">
<svg version="1.1" id="Layer_1" xmlns="http://www.w3.org/2000/svg" xmlns:xlink="http://www.w3.org/1999/xlink" x="0px" y="0px"
	 width="760px" height="760px" viewBox="0 0 760 760" enable-background="new 0 0 760 760" xml:space="preserve">
<g id="sun">
	<radialGradient id="SVGID_1_" cx="380" cy="380.0005" r="152.2998" gradientUnits="userSpaceOnUse">
		<stop  offset="0" style="stop-color:#FFFFFF"/>
		<stop  offset="0.1258" style="stop-color:#FFFFFF;stop-opacity:0.8742"/>
		<stop  offset="1" style="stop-color:#FFFFFF;stop-opacity:0"/>
	</radialGradient>
	<circle fill="url(#SVGID_1_)" cx="380" cy="380" r="152.3"/>
	<radialGradient id="SVGID_2_" cx="380" cy="380.0005" r="206.7998" gradientUnits="userSpaceOnUse">
		<stop  offset="0" style="stop-color:#FFFFFF"/>
		<stop  offset="0.1258" style="stop-color:#FFFFFF;stop-opacity:0.8742"/>
		<stop  offset="1" style="stop-color:#FFFFFF;stop-opacity:0"/>
	</radialGradient>
	<circle fill="url(#SVGID_2_)" cx="380" cy="380" r="206.8"/>
	<radialGradient id="SVGID_3_" cx="379.9995" cy="380" r="48.9888" gradientUnits="userSpaceOnUse">
		<stop  offset="0" style="stop-color:#FFFFFF"/>
		<stop  offset="1" style="stop-color:#FFFFFF;stop-opacity:0"/>
	</radialGradient>
	<circle fill="url(#SVGID_3_)" cx="380" cy="380" r="48.989"/>
	<g>
		
			<radialGradient id="SVGID_4_" cx="425.376" cy="-698.4595" r="152.3013" gradientTransform="matrix(2.4951 0 0 0.2298 -681.3554 540.5056)" gradientUnits="userSpaceOnUse">
			<stop  offset="0" style="stop-color:#FFFFFF"/>
			<stop  offset="0.1258" style="stop-color:#FFFFFF;stop-opacity:0.8742"/>
			<stop  offset="1" style="stop-color:#FFFFFF;stop-opacity:0"/>
		</radialGradient>
		<ellipse opacity="0.2" fill="url(#SVGID_4_)" cx="380" cy="380" rx="380" ry="35"/>
		
			<radialGradient id="SVGID_5_" cx="547.2139" cy="-524.3989" r="152.3027" gradientTransform="matrix(0 2.4951 -0.2298 0 259.4929 -985.353)" gradientUnits="userSpaceOnUse">
			<stop  offset="0" style="stop-color:#FFFFFF"/>
			<stop  offset="0.1258" style="stop-color:#FFFFFF;stop-opacity:0.8742"/>
			<stop  offset="1" style="stop-color:#FFFFFF;stop-opacity:0"/>
		</radialGradient>
		<ellipse opacity="0.2" fill="url(#SVGID_5_)" cx="380" cy="380" rx="35" ry="380"/>
		
			<radialGradient id="SVGID_6_" cx="482.9854" cy="-337.7642" r="152.2993" gradientTransform="matrix(1.7643 1.7643 -0.1625 0.1625 -527.0167 -417.2424)" gradientUnits="userSpaceOnUse">
			<stop  offset="0" style="stop-color:#FFFFFF"/>
			<stop  offset="0.1258" style="stop-color:#FFFFFF;stop-opacity:0.8742"/>
			<stop  offset="1" style="stop-color:#FFFFFF;stop-opacity:0"/>
		</radialGradient>
		<path opacity="0.2" fill="url(#SVGID_6_)" d="M648.7,648.701c-13.668,13.668-145.05-95.553-293.449-243.952
			C206.852,256.35,97.631,124.968,111.299,111.299s145.05,95.553,293.45,243.952C553.147,503.65,662.369,635.032,648.7,648.701z"/>
		
			<radialGradient id="SVGID_7_" cx="580.4746" cy="-1150.0688" r="152.2998" gradientTransform="matrix(-1.7643 1.7643 -0.1625 -0.1625 1217.2429 -831.0162)" gradientUnits="userSpaceOnUse">
			<stop  offset="0" style="stop-color:#FFFFFF"/>
			<stop  offset="0.1258" style="stop-color:#FFFFFF;stop-opacity:0.8742"/>
			<stop  offset="1" style="stop-color:#FFFFFF;stop-opacity:0"/>
		</radialGradient>
		<path opacity="0.2" fill="url(#SVGID_7_)" d="M111.299,648.701c-13.668-13.669,95.553-145.051,243.952-293.449
			C503.65,206.852,635.032,97.631,648.7,111.299c13.669,13.668-95.553,145.05-243.951,293.449
			C256.35,553.148,124.968,662.369,111.299,648.701z"/>
		
			<radialGradient id="SVGID_8_" cx="450.7578" cy="-455.7134" r="152.2998" gradientTransform="matrix(2.3072 0.9499 -0.0875 0.2125 -699.8651 48.6649)" gradientUnits="userSpaceOnUse">
			<stop  offset="0" style="stop-color:#FFFFFF"/>
			<stop  offset="0.1258" style="stop-color:#FFFFFF;stop-opacity:0.8742"/>
			<stop  offset="1" style="stop-color:#FFFFFF;stop-opacity:0"/>
		</radialGradient>
		<path opacity="0.2" fill="url(#SVGID_8_)" d="M731.382,524.674c-7.359,17.874-170.645-32.409-364.707-112.31
			C172.611,332.463,21.258,253.2,28.618,235.326c7.359-17.874,170.645,32.409,364.708,112.31
			C587.388,427.537,738.741,506.8,731.382,524.674z"/>
		
			<radialGradient id="SVGID_9_" cx="569.5244" cy="-798.3794" r="152.2988" gradientTransform="matrix(-0.9499 2.3072 -0.2125 -0.0875 751.3356 -1003.8627)" gradientUnits="userSpaceOnUse">
			<stop  offset="0" style="stop-color:#FFFFFF"/>
			<stop  offset="0.1258" style="stop-color:#FFFFFF;stop-opacity:0.8742"/>
			<stop  offset="1" style="stop-color:#FFFFFF;stop-opacity:0"/>
		</radialGradient>
		<path opacity="0.2" fill="url(#SVGID_9_)" d="M235.325,731.382c-17.874-7.359,32.409-170.645,112.311-364.708
			S506.8,21.258,524.674,28.618s-32.408,170.645-112.31,364.708C332.463,587.388,253.2,738.742,235.325,731.382z"/>
		
			<radialGradient id="SVGID_10_" cx="516.7354" cy="-360.8032" r="152.3086" gradientTransform="matrix(0.9597 2.3031 -0.2121 0.0884 -192.4374 -778.199)" gradientUnits="userSpaceOnUse">
			<stop  offset="0" style="stop-color:#FFFFFF"/>
			<stop  offset="0.1258" style="stop-color:#FFFFFF;stop-opacity:0.8742"/>
			<stop  offset="1" style="stop-color:#FFFFFF;stop-opacity:0"/>
		</radialGradient>
		<path opacity="0.2" fill="url(#SVGID_10_)" d="M526.164,730.765c-17.843,7.435-97.747-143.581-178.472-337.303
			C266.968,199.74,215.992,36.67,233.835,29.235s97.748,143.58,178.472,337.302C493.031,560.259,544.007,723.33,526.164,730.765z"/>
		
			<radialGradient id="SVGID_11_" cx="578.4072" cy="-1515.0435" r="152.3076" gradientTransform="matrix(-2.3031 0.9597 -0.0884 -0.2121 1578.1995 -496.4369)" gradientUnits="userSpaceOnUse">
			<stop  offset="0" style="stop-color:#FFFFFF"/>
			<stop  offset="0.1258" style="stop-color:#FFFFFF;stop-opacity:0.8742"/>
			<stop  offset="1" style="stop-color:#FFFFFF;stop-opacity:0"/>
		</radialGradient>
		<path opacity="0.2" fill="url(#SVGID_11_)" d="M29.235,526.165c-7.435-17.843,143.581-97.747,337.302-178.472
			s356.792-131.7,364.228-113.857c7.435,17.843-143.58,97.747-337.303,178.472C199.74,493.032,36.67,544.007,29.235,526.165z"/>
	</g>
</g>
</svg>
