<?xml version="1.0" encoding="utf-8"?>
<!-- Generator: Adobe Illustrator 16.0.0, SVG Export Plug-In . SVG Version: 6.00 Build 0)  -->
<!DOCTYPE svg PUBLIC "-//W3C//DTD SVG 1.1//EN" "http://www.w3.org/Graphics/SVG/1.1/DTD/svg11.dtd">
<svg version="1.1" id="Layer_1" xmlns="http://www.w3.org/2000/svg" xmlns:xlink="http://www.w3.org/1999/xlink" x="0px" y="0px"
	 width="1046.022px" height="695.777px" viewBox="0 0 1046.022 695.777" enable-background="new 0 0 1046.022 695.777"
	 xml:space="preserve">
<path fill="#5A98D1" d="M1044.333,421.294c-5.401-44.685-22.715-86.533-54.46-122.466c-12.473-14.118-27.518-27.862-43.308-38.223
	c-38.34-25.155-83.616-41.812-128.118-52.09c-25.322-5.849-51.286-9.484-77.147-11.948c-84.089-8.012-168.21-7.981-252.449-12.348
	c-23.021-1.193-46.013-3.496-68.668-7.829c-25.826-4.938-51.278-11.924-75.84-21.337c-20.667-7.921-40.729-17.324-59.901-28.395
	C214.799,86.444,158.708,25.573,80.791,0c-3.779,1.883-7.252,4.002-10.244,6.287c-31.73,24.228-43.849,74.057-52.938,110.795
	C-7.18,217.281-0.344,324.156,5.629,426.214c2.132,36.429,2.407,72.977,8.707,109.03c2.837,16.234,3.637,37.676,16.347,49.875
	c11.272,10.818,27.994,9.114,42.351,8.187c50.08-3.238,101.963,1.874,151.811,6.754c51.055,4.998,101.87,12.729,151.944,23.919
	c115.616,25.838,230.234,72.088,350.171,71.798c34.314-0.084,68.331-3.754,101.489-12.849
	c73.773-20.234,164.958-60.721,196.986-135.744C1042.499,507.213,1049.558,464.514,1044.333,421.294z"/>
</svg>
